<svg xmlns="http://www.w3.org/2000/svg" viewBox="0 0 800 500">
  <!-- Background -->
  <rect width="800" height="500" fill="#f8f9fa" rx="10" ry="10"/>
  
  <!-- Title -->
  <text x="400" y="40" font-family="Arial" font-size="24" text-anchor="middle" font-weight="bold">DataFrame Structure</text>
  
  <!-- DataFrame outline -->
  <rect x="100" y="80" width="600" height="320" fill="white" stroke="#ddd" stroke-width="2" rx="5" ry="5"/>
  
  <!-- Column Headers -->
  <rect x="180" y="80" width="130" height="40" fill="#e6f3ff" stroke="#aad" stroke-width="1"/>
  <rect x="310" y="80" width="130" height="40" fill="#e6f3ff" stroke="#aad" stroke-width="1"/>
  <rect x="440" y="80" width="130" height="40" fill="#e6f3ff" stroke="#aad" stroke-width="1"/>
  <rect x="570" y="80" width="130" height="40" fill="#e6f3ff" stroke="#aad" stroke-width="1"/>
  
  <!-- Column Header Text -->
  <text x="245" y="105" font-family="monospace" font-size="14" text-anchor="middle" font-weight="bold">author</text>
  <text x="375" y="105" font-family="monospace" font-size="14" text-anchor="middle" font-weight="bold">date</text>
  <text x="505" y="105" font-family="monospace" font-size="14" text-anchor="middle" font-weight="bold">files_changed</text>
  <text x="635" y="105" font-family="monospace" font-size="14" text-anchor="middle" font-weight="bold">insertions</text>
  
  <!-- Index Headers -->
  <rect x="100" y="120" width="80" height="40" fill="#fff0e6" stroke="#daa" stroke-width="1"/>
  <rect x="100" y="160" width="80" height="40" fill="#fff0e6" stroke="#daa" stroke-width="1"/>
  <rect x="100" y="200" width="80" height="40" fill="#fff0e6" stroke="#daa" stroke-width="1"/>
  <rect x="100" y="240" width="80" height="40" fill="#fff0e6" stroke="#daa" stroke-width="1"/>
  <rect x="100" y="280" width="80" height="40" fill="#fff0e6" stroke="#daa" stroke-width="1"/>
  <rect x="100" y="320" width="80" height="40" fill="#fff0e6" stroke="#daa" stroke-width="1"/>
  
  <!-- Index Header Text -->
  <text x="140" y="145" font-family="monospace" font-size="14" text-anchor="middle" font-weight="bold">0</text>
  <text x="140" y="185" font-family="monospace" font-size="14" text-anchor="middle" font-weight="bold">1</text>
  <text x="140" y="225" font-family="monospace" font-size="14" text-anchor="middle" font-weight="bold">2</text>
  <text x="140" y="265" font-family="monospace" font-size="14" text-anchor="middle" font-weight="bold">3</text>
  <text x="140" y="305" font-family="monospace" font-size="14" text-anchor="middle" font-weight="bold">4</text>
  <text x="140" y="345" font-family="monospace" font-size="14" text-anchor="middle" font-weight="bold">5</text>
  
  <!-- Index Label -->
  <text x="140" y="75" font-family="Arial" font-size="14" text-anchor="middle" fill="#555" font-style="italic">Index</text>
  
  <!-- Corner cell (empty) -->
  <rect x="100" y="80" width="80" height="40" fill="#f8f8f8" stroke="#ddd" stroke-width="1"/>
  
  <!-- Data Cells -->
  <!-- Row 0 -->
  <rect x="180" y="120" width="130" height="40" fill="white" stroke="#ddd" stroke-width="1"/>
  <rect x="310" y="120" width="130" height="40" fill="white" stroke="#ddd" stroke-width="1"/>
  <rect x="440" y="120" width="130" height="40" fill="white" stroke="#ddd" stroke-width="1"/>
  <rect x="570" y="120" width="130" height="40" fill="white" stroke="#ddd" stroke-width="1"/>
  
  <!-- Row 1 -->
  <rect x="180" y="160" width="130" height="40" fill="white" stroke="#ddd" stroke-width="1"/>
  <rect x="310" y="160" width="130" height="40" fill="white" stroke="#ddd" stroke-width="1"/>
  <rect x="440" y="160" width="130" height="40" fill="white" stroke="#ddd" stroke-width="1"/>
  <rect x="570" y="160" width="130" height="40" fill="white" stroke="#ddd" stroke-width="1"/>
  
  <!-- Row 2 -->
  <rect x="180" y="200" width="130" height="40" fill="white" stroke="#ddd" stroke-width="1"/>
  <rect x="310" y="200" width="130" height="40" fill="white" stroke="#ddd" stroke-width="1"/>
  <rect x="440" y="200" width="130" height="40" fill="white" stroke="#ddd" stroke-width="1"/>
  <rect x="570" y="200" width="130" height="40" fill="white" stroke="#ddd" stroke-width="1"/>
  
  <!-- Row 3 -->
  <rect x="180" y="240" width="130" height="40" fill="white" stroke="#ddd" stroke-width="1"/>
  <rect x="310" y="240" width="130" height="40" fill="white" stroke="#ddd" stroke-width="1"/>
  <rect x="440" y="240" width="130" height="40" fill="white" stroke="#ddd" stroke-width="1"/>
  <rect x="570" y="240" width="130" height="40" fill="white" stroke="#ddd" stroke-width="1"/>
  
  <!-- Row 4 -->
  <rect x="180" y="280" width="130" height="40" fill="white" stroke="#ddd" stroke-width="1"/>
  <rect x="310" y="280" width="130" height="40" fill="white" stroke="#ddd" stroke-width="1"/>
  <rect x="440" y="280" width="130" height="40" fill="white" stroke="#ddd" stroke-width="1"/>
  <rect x="570" y="280" width="130" height="40" fill="white" stroke="#ddd" stroke-width="1"/>
  
  <!-- Row 5 -->
  <rect x="180" y="320" width="130" height="40" fill="white" stroke="#ddd" stroke-width="1"/>
  <rect x="310" y="320" width="130" height="40" fill="white" stroke="#ddd" stroke-width="1"/>
  <rect x="440" y="320" width="130" height="40" fill="white" stroke="#ddd" stroke-width="1"/>
  <rect x="570" y="320" width="130" height="40" fill="white" stroke="#ddd" stroke-width="1"/>
  
  <!-- Sample Data -->
  <text x="245" y="145" font-family="monospace" font-size="14" text-anchor="middle">Alice</text>
  <text x="375" y="145" font-family="monospace" font-size="14" text-anchor="middle">2023-01-15</text>
  <text x="505" y="145" font-family="monospace" font-size="14" text-anchor="middle">2</text>
  <text x="635" y="145" font-family="monospace" font-size="14" text-anchor="middle">15</text>
  
  <text x="245" y="185" font-family="monospace" font-size="14" text-anchor="middle">Bob</text>
  <text x="375" y="185" font-family="monospace" font-size="14" text-anchor="middle">2023-01-15</text>
  <text x="505" y="185" font-family="monospace" font-size="14" text-anchor="middle">5</text>
  <text x="635" y="185" font-family="monospace" font-size="14" text-anchor="middle">42</text>
  
  <text x="245" y="225" font-family="monospace" font-size="14" text-anchor="middle">Alice</text>
  <text x="375" y="225" font-family="monospace" font-size="14" text-anchor="middle">2023-01-16</text>
  <text x="505" y="225" font-family="monospace" font-size="14" text-anchor="middle">1</text>
  <text x="635" y="225" font-family="monospace" font-size="14" text-anchor="middle">7</text>
  
  <text x="245" y="265" font-family="monospace" font-size="14" text-anchor="middle">Charlie</text>
  <text x="375" y="265" font-family="monospace" font-size="14" text-anchor="middle">2023-01-17</text>
  <text x="505" y="265" font-family="monospace" font-size="14" text-anchor="middle">3</text>
  <text x="635" y="265" font-family="monospace" font-size="14" text-anchor="middle">29</text>
  
  <text x="245" y="305" font-family="monospace" font-size="14" text-anchor="middle">Dave</text>
  <text x="375" y="305" font-family="monospace" font-size="14" text-anchor="middle">2023-01-18</text>
  <text x="505" y="305" font-family="monospace" font-size="14" text-anchor="middle">7</text>
  <text x="635" y="305" font-family="monospace" font-size="14" text-anchor="middle">120</text>
  
  <text x="245" y="345" font-family="monospace" font-size="14" text-anchor="middle">Alice</text>
  <text x="375" y="345" font-family="monospace" font-size="14" text-anchor="middle">2023-01-18</text>
  <text x="505" y="345" font-family="monospace" font-size="14" text-anchor="middle">4</text>
  <text x="635" y="345" font-family="monospace" font-size="14" text-anchor="middle">33</text>
    
  <!-- Columns annotation -->
  <path d="M400 50 L400 70" stroke="#3498db" stroke-width="2" fill="none"/>
  <path d="M180 70 L700 70" stroke="#3498db" stroke-width="2" fill="none"/>
  <text x="440" y="65" font-family="Arial" font-size="14" text-anchor="middle" fill="#3498db" font-weight="bold">Columns</text>
  
  <!-- Rows annotation -->
  <path d="M90 200 L95 200" stroke="#e74c3c" stroke-width="2" fill="none"/>
  <path d="M90 140 L90 360" stroke="#e74c3c" stroke-width="2" fill="none"/>
  <text x="60" y="200" font-family="Arial" font-size="14" text-anchor="middle" fill="#e74c3c" font-weight="bold" transform="rotate(-90,60,200)">Rows</text>
  
  <!-- Index annotation -->
  <path d="M140 420 L140 380" stroke="#f39c12" stroke-width="2" fill="none" marker-end="url(#arrowhead)"/>
  <text x="140" y="440" font-family="Arial" font-size="14" text-anchor="middle" fill="#f39c12" font-weight="bold">Index Labels</text>
  
  <!-- Data cells annotation -->
  <path d="M450 420 L450 360" stroke="#2ecc71" stroke-width="2" fill="none" marker-end="url(#arrowhead)"/>
  <text x="450" y="440" font-family="Arial" font-size="14" text-anchor="middle" fill="#2ecc71" font-weight="bold">Data Values</text>
  
  <!-- Data types annotation -->
  <path d="M700 420 L650 360" stroke="#9b59b6" stroke-width="2" fill="none" marker-end="url(#arrowhead)"/>
  <text x="700" y="440" font-family="Arial" font-size="14" text-anchor="middle" fill="#9b59b6" font-weight="bold">Different Data Types</text>
  
  <!-- Arrowhead marker -->
  <defs>
    <marker id="arrowhead" markerWidth="10" markerHeight="7" refX="0" refY="3.5" orient="auto">
      <polygon points="0 0, 10 3.5, 0 7" fill="#555"/>
    </marker>
  </defs>
</svg>